<svg xmlns="http://www.w3.org/2000/svg" xmlns:xlink="http://www.w3.org/1999/xlink" width="215" zoomAndPan="magnify" viewBox="0 0 161.25 190.499993" height="254" preserveAspectRatio="xMidYMid meet" version="1.0"><defs><clipPath id="47534fe120"><path d="M 117.894531 29.855469 L 160.109375 29.855469 L 160.109375 160.128906 L 117.894531 160.128906 Z M 117.894531 29.855469 " clip-rule="nonzero"/></clipPath><clipPath id="e59d450cb9"><path d="M 123.121094 29.855469 L 154.882812 29.855469 C 156.269531 29.855469 157.597656 30.40625 158.578125 31.386719 C 159.558594 32.367188 160.109375 33.695312 160.109375 35.082031 L 160.109375 154.898438 C 160.109375 156.28125 159.558594 157.613281 158.578125 158.59375 C 157.597656 159.570312 156.269531 160.121094 154.882812 160.121094 L 123.121094 160.121094 C 121.734375 160.121094 120.402344 159.570312 119.425781 158.59375 C 118.445312 157.613281 117.894531 156.28125 117.894531 154.898438 L 117.894531 35.082031 C 117.894531 33.695312 118.445312 32.367188 119.425781 31.386719 C 120.402344 30.40625 121.734375 29.855469 123.121094 29.855469 Z M 123.121094 29.855469 " clip-rule="nonzero"/></clipPath><clipPath id="d0d46b7957"><path d="M 0 29.855469 L 59.894531 29.855469 L 59.894531 160.171875 L 0 160.171875 Z M 0 29.855469 " clip-rule="nonzero"/></clipPath><clipPath id="9596892002"><path d="M 5.226562 29.855469 L 54.667969 29.855469 C 56.054688 29.855469 57.382812 30.40625 58.363281 31.386719 C 59.34375 32.367188 59.894531 33.695312 59.894531 35.082031 L 59.894531 154.898438 C 59.894531 156.28125 59.34375 157.613281 58.363281 158.59375 C 57.382812 159.570312 56.054688 160.121094 54.667969 160.121094 L 5.226562 160.121094 C 3.839844 160.121094 2.511719 159.570312 1.53125 158.59375 C 0.550781 157.613281 0 156.28125 0 154.898438 L 0 35.082031 C 0 33.695312 0.550781 32.367188 1.53125 31.386719 C 2.511719 30.40625 3.839844 29.855469 5.226562 29.855469 Z M 5.226562 29.855469 " clip-rule="nonzero"/></clipPath><clipPath id="eac722da28"><path d="M 38.605469 1.441406 L 110.894531 1.441406 L 110.894531 188.367188 L 38.605469 188.367188 Z M 38.605469 1.441406 " clip-rule="nonzero"/></clipPath><clipPath id="04c2ecf34c"><path d="M 38.605469 161.261719 L 38.605469 28.703125 C 38.605469 25.589844 40.617188 22.832031 43.582031 21.875 L 105.917969 1.789062 C 107.078125 1.414062 108.34375 1.617188 109.328125 2.335938 C 110.3125 3.050781 110.894531 4.195312 110.894531 5.410156 L 110.894531 184.554688 C 110.894531 185.773438 110.3125 186.914062 109.328125 187.632812 C 108.34375 188.347656 107.078125 188.550781 105.917969 188.179688 L 43.582031 168.089844 C 40.617188 167.136719 38.605469 164.378906 38.605469 161.261719 Z M 38.605469 161.261719 " clip-rule="nonzero"/></clipPath><clipPath id="23281c2a01"><path d="M 61.324219 81.742188 L 85.234375 81.742188 L 85.234375 108.171875 L 61.324219 108.171875 Z M 61.324219 81.742188 " clip-rule="nonzero"/></clipPath><clipPath id="1262352342"><path d="M 83.636719 97.582031 L 65.863281 107.738281 C 64.921875 108.273438 63.769531 108.269531 62.835938 107.726562 C 61.898438 107.183594 61.324219 106.183594 61.324219 105.105469 L 61.324219 84.871094 C 61.324219 83.792969 61.898438 82.792969 62.835938 82.25 C 63.769531 81.707031 64.921875 81.703125 65.863281 82.238281 L 83.636719 92.394531 C 84.566406 92.925781 85.140625 93.917969 85.140625 94.988281 C 85.140625 96.058594 84.566406 97.050781 83.636719 97.582031 Z M 83.636719 97.582031 " clip-rule="nonzero"/></clipPath></defs><g clip-path="url(#47534fe120)"><g clip-path="url(#e59d450cb9)"><path fill="#767677" d="M 117.894531 29.855469 L 160.109375 29.855469 L 160.109375 160.128906 L 117.894531 160.128906 Z M 117.894531 29.855469 " fill-opacity="1" fill-rule="nonzero"/></g></g><g clip-path="url(#d0d46b7957)"><g clip-path="url(#9596892002)"><path fill="#000000" d="M 0 29.855469 L 59.894531 29.855469 L 59.894531 160.171875 L 0 160.171875 Z M 0 29.855469 " fill-opacity="1" fill-rule="nonzero"/></g></g><g clip-path="url(#eac722da28)"><g clip-path="url(#04c2ecf34c)"><path fill="#e5373a" d="M 38.605469 189.78125 L 38.605469 0.3125 L 110.894531 0.3125 L 110.894531 189.78125 Z M 38.605469 189.78125 " fill-opacity="1" fill-rule="nonzero"/></g></g><g clip-path="url(#23281c2a01)"><g clip-path="url(#1262352342)"><path fill="#ffffff" d="M 88.171875 79.648438 L 88.171875 110.375 L 61.324219 110.375 L 61.324219 79.648438 Z M 88.171875 79.648438 " fill-opacity="1" fill-rule="nonzero"/></g></g></svg>