<svg xmlns="http://www.w3.org/2000/svg" xmlns:xlink="http://www.w3.org/1999/xlink" width="701" zoomAndPan="magnify" viewBox="0 0 525.75 190.499994" height="254" preserveAspectRatio="xMidYMid meet" version="1.0"><defs><g/><clipPath id="adf2f54aea"><path d="M 118.695312 29.722656 L 160.996094 29.722656 L 160.996094 160.261719 L 118.695312 160.261719 Z M 118.695312 29.722656 " clip-rule="nonzero"/></clipPath><clipPath id="78da35a57a"><path d="M 123.929688 29.722656 L 155.757812 29.722656 C 157.148438 29.722656 158.480469 30.277344 159.460938 31.257812 C 160.445312 32.238281 160.996094 33.570312 160.996094 34.960938 L 160.996094 155.015625 C 160.996094 156.40625 160.445312 157.738281 159.460938 158.71875 C 158.480469 159.703125 157.148438 160.253906 155.757812 160.253906 L 123.929688 160.253906 C 122.542969 160.253906 121.210938 159.703125 120.230469 158.71875 C 119.246094 157.738281 118.695312 156.40625 118.695312 155.015625 L 118.695312 34.960938 C 118.695312 33.570312 119.246094 32.238281 120.230469 31.257812 C 121.210938 30.277344 122.542969 29.722656 123.929688 29.722656 Z M 123.929688 29.722656 " clip-rule="nonzero"/></clipPath><clipPath id="c51d95deea"><path d="M 0.5625 29.722656 L 60.578125 29.722656 L 60.578125 160.300781 L 0.5625 160.300781 Z M 0.5625 29.722656 " clip-rule="nonzero"/></clipPath><clipPath id="7c2969b4bc"><path d="M 5.800781 29.722656 L 55.339844 29.722656 C 56.730469 29.722656 58.0625 30.277344 59.042969 31.257812 C 60.027344 32.238281 60.578125 33.570312 60.578125 34.960938 L 60.578125 155.015625 C 60.578125 156.40625 60.027344 157.738281 59.042969 158.71875 C 58.0625 159.703125 56.730469 160.253906 55.339844 160.253906 L 5.800781 160.253906 C 4.410156 160.253906 3.078125 159.703125 2.097656 158.71875 C 1.113281 157.738281 0.5625 156.40625 0.5625 155.015625 L 0.5625 34.960938 C 0.5625 33.570312 1.113281 32.238281 2.097656 31.257812 C 3.078125 30.277344 4.410156 29.722656 5.800781 29.722656 Z M 5.800781 29.722656 " clip-rule="nonzero"/></clipPath><clipPath id="ed30fe3314"><path d="M 39.25 1.253906 L 111.679688 1.253906 L 111.679688 188.558594 L 39.25 188.558594 Z M 39.25 1.253906 " clip-rule="nonzero"/></clipPath><clipPath id="0b93cf30df"><path d="M 39.25 161.398438 L 39.25 28.570312 C 39.25 25.449219 41.261719 22.683594 44.230469 21.726562 L 106.695312 1.601562 C 107.855469 1.226562 109.125 1.429688 110.113281 2.148438 C 111.097656 2.863281 111.679688 4.011719 111.679688 5.230469 L 111.679688 184.734375 C 111.679688 185.953125 111.097656 187.101562 110.113281 187.816406 C 109.125 188.535156 107.855469 188.738281 106.695312 188.367188 L 44.230469 168.238281 C 41.261719 167.28125 39.25 164.515625 39.25 161.398438 Z M 39.25 161.398438 " clip-rule="nonzero"/></clipPath><clipPath id="c66908d3d6"><path d="M 62.011719 81.71875 L 85.972656 81.71875 L 85.972656 108.199219 L 62.011719 108.199219 Z M 62.011719 81.71875 " clip-rule="nonzero"/></clipPath><clipPath id="ee10d97164"><path d="M 84.367188 97.585938 L 66.558594 107.761719 C 65.617188 108.300781 64.460938 108.296875 63.523438 107.753906 C 62.589844 107.207031 62.011719 106.207031 62.011719 105.125 L 62.011719 84.851562 C 62.011719 83.769531 62.589844 82.765625 63.523438 82.222656 C 64.460938 81.679688 65.617188 81.675781 66.558594 82.214844 L 84.367188 92.390625 C 85.300781 92.921875 85.875 93.914062 85.875 94.988281 C 85.875 96.0625 85.300781 97.054688 84.367188 97.585938 Z M 84.367188 97.585938 " clip-rule="nonzero"/></clipPath></defs><g clip-path="url(#adf2f54aea)"><g clip-path="url(#78da35a57a)"><path fill="#767677" d="M 118.695312 29.722656 L 160.996094 29.722656 L 160.996094 160.261719 L 118.695312 160.261719 Z M 118.695312 29.722656 " fill-opacity="1" fill-rule="nonzero"/></g></g><g clip-path="url(#c51d95deea)"><g clip-path="url(#7c2969b4bc)"><path fill="#000000" d="M 0.5625 29.722656 L 60.578125 29.722656 L 60.578125 160.300781 L 0.5625 160.300781 Z M 0.5625 29.722656 " fill-opacity="1" fill-rule="nonzero"/></g></g><g clip-path="url(#ed30fe3314)"><g clip-path="url(#0b93cf30df)"><path fill="#e5373a" d="M 39.25 189.972656 L 39.25 0.121094 L 111.679688 0.121094 L 111.679688 189.972656 Z M 39.25 189.972656 " fill-opacity="1" fill-rule="nonzero"/></g></g><g clip-path="url(#c66908d3d6)"><g clip-path="url(#ee10d97164)"><path fill="#ffffff" d="M 88.914062 79.613281 L 88.914062 110.40625 L 62.011719 110.40625 L 62.011719 79.613281 Z M 88.914062 79.613281 " fill-opacity="1" fill-rule="nonzero"/></g></g><g fill="#e5373a" fill-opacity="1"><g transform="translate(190.917106, 122.72626)"><g><path d="M 22.789062 -8.054688 C 24.714844 -8.054688 27.027344 -8.476562 29.722656 -9.316406 L 29.722656 -1.121094 C 26.980469 0.109375 23.609375 0.722656 19.609375 0.722656 C 15.203125 0.722656 11.996094 -0.390625 9.984375 -2.617188 C 7.976562 -4.84375 6.96875 -8.1875 6.96875 -12.640625 L 6.96875 -32.109375 L 1.699219 -32.109375 L 1.699219 -36.765625 L 7.765625 -40.449219 L 10.941406 -48.972656 L 17.984375 -48.972656 L 17.984375 -40.378906 L 29.289062 -40.378906 L 29.289062 -32.109375 L 17.984375 -32.109375 L 17.984375 -12.640625 C 17.984375 -11.074219 18.425781 -9.921875 19.304688 -9.171875 C 20.183594 -8.425781 21.34375 -8.054688 22.789062 -8.054688 Z M 22.789062 -8.054688 "/></g></g></g><g fill="#e5373a" fill-opacity="1"><g transform="translate(223.024562, 122.72626)"><g><path d="M 28.316406 -41.136719 C 29.808594 -41.136719 31.046875 -41.027344 32.035156 -40.8125 L 31.203125 -30.480469 C 30.3125 -30.722656 29.230469 -30.84375 27.953125 -30.84375 C 24.4375 -30.84375 21.699219 -29.941406 19.738281 -28.132812 C 17.773438 -26.328125 16.792969 -23.800781 16.792969 -20.550781 L 16.792969 0 L 5.777344 0 L 5.777344 -40.378906 L 14.121094 -40.378906 L 15.746094 -33.589844 L 16.289062 -33.589844 C 17.539062 -35.851562 19.230469 -37.675781 21.363281 -39.058594 C 23.492188 -40.445312 25.8125 -41.136719 28.316406 -41.136719 Z M 28.316406 -41.136719 "/></g></g></g><g fill="#e5373a" fill-opacity="1"><g transform="translate(256.612789, 122.72626)"><g><path d="M 31.421875 0 L 29.289062 -5.488281 L 29 -5.488281 C 27.148438 -3.152344 25.238281 -1.535156 23.277344 -0.632812 C 21.316406 0.269531 18.757812 0.722656 15.601562 0.722656 C 11.726562 0.722656 8.675781 -0.386719 6.445312 -2.601562 C 4.21875 -4.816406 3.105469 -7.96875 3.105469 -12.0625 C 3.105469 -16.347656 4.605469 -19.507812 7.601562 -21.542969 C 10.601562 -23.578125 15.121094 -24.703125 21.164062 -24.921875 L 28.171875 -25.136719 L 28.171875 -26.90625 C 28.171875 -31 26.074219 -33.046875 21.886719 -33.046875 C 18.660156 -33.046875 14.867188 -32.070312 10.511719 -30.121094 L 6.863281 -37.5625 C 11.507812 -39.992188 16.660156 -41.207031 22.320312 -41.207031 C 27.738281 -41.207031 31.890625 -40.027344 34.78125 -37.667969 C 37.667969 -35.308594 39.113281 -31.722656 39.113281 -26.90625 L 39.113281 0 Z M 28.171875 -18.707031 L 23.910156 -18.5625 C 20.707031 -18.46875 18.324219 -17.890625 16.757812 -16.832031 C 15.191406 -15.769531 14.410156 -14.15625 14.410156 -11.992188 C 14.410156 -8.882812 16.191406 -7.332031 19.753906 -7.332031 C 22.308594 -7.332031 24.347656 -8.066406 25.878906 -9.535156 C 27.40625 -11.003906 28.171875 -12.953125 28.171875 -15.386719 Z M 28.171875 -18.707031 "/></g></g></g><g fill="#e5373a" fill-opacity="1"><g transform="translate(301.288743, 122.72626)"><g><path d="M 22.175781 0.722656 C 9.605469 0.722656 3.324219 -6.175781 3.324219 -19.972656 C 3.324219 -26.835938 5.03125 -32.078125 8.453125 -35.699219 C 11.871094 -39.324219 16.769531 -41.136719 23.152344 -41.136719 C 27.820312 -41.136719 32.011719 -40.222656 35.71875 -38.390625 L 32.46875 -29.867188 C 30.734375 -30.566406 29.121094 -31.136719 27.628906 -31.582031 C 26.136719 -32.027344 24.644531 -32.25 23.152344 -32.25 C 17.421875 -32.25 14.554688 -28.183594 14.554688 -20.042969 C 14.554688 -12.148438 17.421875 -8.199219 23.152344 -8.199219 C 25.269531 -8.199219 27.230469 -8.480469 29.039062 -9.046875 C 30.84375 -9.613281 32.648438 -10.496094 34.453125 -11.703125 L 34.453125 -2.273438 C 32.671875 -1.144531 30.875 -0.359375 29.054688 0.0703125 C 27.238281 0.503906 24.945312 0.722656 22.175781 0.722656 Z M 22.175781 0.722656 "/></g></g></g><g fill="#e5373a" fill-opacity="1"><g transform="translate(339.319284, 122.72626)"><g><path d="M 16.359375 -21.957031 L 21.164062 -28.097656 L 32.46875 -40.378906 L 44.894531 -40.378906 L 28.855469 -22.863281 L 45.867188 0 L 33.15625 0 L 21.523438 -16.359375 L 16.792969 -12.570312 L 16.792969 0 L 5.777344 0 L 5.777344 -56.195312 L 16.792969 -56.195312 L 16.792969 -31.132812 L 16.214844 -21.957031 Z M 16.359375 -21.957031 "/></g></g></g><g fill="#000000" fill-opacity="1"><g transform="translate(385.194299, 122.72626)"><g><path d="M 28.097656 -32.109375 L 18.5625 -32.109375 L 18.5625 0 L 7.546875 0 L 7.546875 -32.109375 L 1.480469 -32.109375 L 1.480469 -37.417969 L 7.546875 -40.378906 L 7.546875 -43.339844 C 7.546875 -47.9375 8.679688 -51.296875 10.941406 -53.417969 C 13.207031 -55.535156 16.832031 -56.59375 21.8125 -56.59375 C 25.617188 -56.59375 29 -56.027344 31.964844 -54.898438 L 29.144531 -46.808594 C 26.929688 -47.503906 24.882812 -47.855469 23.007812 -47.855469 C 21.441406 -47.855469 20.308594 -47.390625 19.609375 -46.464844 C 18.914062 -45.535156 18.5625 -44.351562 18.5625 -42.90625 L 18.5625 -40.378906 L 28.097656 -40.378906 Z M 28.097656 -32.109375 "/></g></g></g><g fill="#000000" fill-opacity="1"><g transform="translate(413.834583, 122.72626)"><g><path d="M 5.777344 -56.195312 L 16.792969 -56.195312 L 16.792969 0 L 5.777344 0 Z M 5.777344 -56.195312 "/></g></g></g><g fill="#000000" fill-opacity="1"><g transform="translate(436.407317, 122.72626)"><g><path d="M 5.308594 -50.816406 C 5.308594 -54.402344 7.308594 -56.195312 11.304688 -56.195312 C 15.300781 -56.195312 17.300781 -54.402344 17.300781 -50.816406 C 17.300781 -49.105469 16.800781 -47.777344 15.800781 -46.824219 C 14.800781 -45.875 13.304688 -45.398438 11.304688 -45.398438 C 7.308594 -45.398438 5.308594 -47.203125 5.308594 -50.816406 Z M 16.792969 0 L 5.777344 0 L 5.777344 -40.378906 L 16.792969 -40.378906 Z M 16.792969 0 "/></g></g></g><g fill="#000000" fill-opacity="1"><g transform="translate(458.98005, 122.72626)"><g><path d="M 14.050781 -20.621094 L 1.046875 -40.378906 L 13.542969 -40.378906 L 21.382812 -27.519531 L 29.289062 -40.378906 L 41.785156 -40.378906 L 28.640625 -20.621094 L 42.402344 0 L 29.867188 0 L 21.382812 -13.832031 L 12.859375 0 L 0.359375 0 Z M 14.050781 -20.621094 "/></g></g></g></svg>